<svg width="640" height="420" viewBox="0 0 640 420" fill="none" xmlns="http://www.w3.org/2000/svg">
  <rect width="640" height="420" rx="36" fill="#FFF9E8"/>
  <circle cx="493" cy="94" r="42" fill="#F4C400" fill-opacity="0.22"/>
  <circle cx="130" cy="94" r="52" fill="#5EA8FF" fill-opacity="0.13"/>
  <rect x="130" y="90" width="314" height="228" rx="20" fill="white" stroke="#EAEAEA" stroke-width="4"/>
  <rect x="164" y="125" width="118" height="132" rx="14" fill="#FFF3C2"/>
  <rect x="302" y="126" width="109" height="18" rx="9" fill="#7B624A" fill-opacity="0.22"/>
  <rect x="302" y="162" width="98" height="14" rx="7" fill="#7B624A" fill-opacity="0.14"/>
  <rect x="302" y="192" width="86" height="14" rx="7" fill="#7B624A" fill-opacity="0.14"/>
  <rect x="302" y="228" width="84" height="34" rx="17" fill="#F4C400"/>
  <path d="M189 153C204 132 224 146 233 160C243 143 265 137 277 154V240H189V153Z" fill="#B7CF8D"/>
  <path d="M214 131C214 118 223 108 236 108C248 108 258 118 258 131C258 144 248 154 236 154C223 154 214 144 214 131Z" fill="#FFCE55"/>
  <path d="M101 320C157 291 224 291 280 320" stroke="#C9B8A5" stroke-width="8" stroke-linecap="round" stroke-dasharray="9 17"/>
  <path d="M383 311C423 286 473 282 524 298" stroke="#B7CF8D" stroke-width="8" stroke-linecap="round" stroke-dasharray="4 18"/>
</svg>
