<svg width="640" height="420" viewBox="0 0 640 420" fill="none" xmlns="http://www.w3.org/2000/svg">
  <rect width="640" height="420" rx="36" fill="#FFF8EF"/>
  <rect x="120" y="108" width="182" height="190" rx="24" fill="white" stroke="#EAEAEA" stroke-width="4"/>
  <rect x="152" y="148" width="118" height="88" rx="16" fill="#FFF3C2"/>
  <path d="M152 236L179 207L209 225L227 198L270 236V254H152V236Z" fill="#B7CF8D"/>
  <circle cx="244" cy="167" r="13" fill="#F4C400"/>
  <path d="M314 203H383" stroke="#B7CF8D" stroke-width="10" stroke-linecap="round"/>
  <path d="M370 190L389 203L370 216" stroke="#B7CF8D" stroke-width="10" stroke-linecap="round" stroke-linejoin="round"/>
  <rect x="398" y="136" width="122" height="122" rx="61" fill="#EAF4FF"/>
  <circle cx="437" cy="177" r="13" fill="#5EA8FF"/>
  <circle cx="480" cy="216" r="13" fill="#F4C400"/>
  <circle cx="451" cy="240" r="13" fill="#7B624A"/>
  <path d="M437 177L479 216L451 240" stroke="#7B624A" stroke-width="6" stroke-linecap="round" stroke-linejoin="round"/>
  <path d="M128 328C206 289 314 293 393 334" stroke="#D9C7B4" stroke-width="8" stroke-linecap="round" stroke-dasharray="7 16"/>
</svg>
