<svg width="640" height="420" viewBox="0 0 640 420" fill="none" xmlns="http://www.w3.org/2000/svg">
  <rect width="640" height="420" rx="36" fill="#F8FBFF"/>
  <rect x="120" y="116" width="414" height="190" rx="26" fill="white" stroke="#EAEAEA" stroke-width="4"/>
  <path d="M168 258C216 183 290 145 347 171C401 196 415 249 486 234" stroke="#F4C400" stroke-width="10" stroke-linecap="round" stroke-dasharray="1 20"/>
  <path d="M150 260C150 241 166 226 185 226C204 226 220 241 220 260C220 289 185 321 185 321C185 321 150 289 150 260Z" fill="#5EA8FF"/>
  <circle cx="185" cy="259" r="11" fill="white"/>
  <path d="M461 207C461 188 477 173 496 173C515 173 531 188 531 207C531 236 496 268 496 268C496 268 461 236 461 207Z" fill="#B7CF8D"/>
  <circle cx="496" cy="206" r="11" fill="white"/>
  <rect x="258" y="232" width="112" height="52" rx="18" fill="#FFF7D8"/>
  <rect x="274" y="249" width="50" height="16" rx="8" fill="#7B624A" fill-opacity="0.18"/>
  <rect x="334" y="249" width="20" height="16" rx="8" fill="#F4C400"/>
  <circle cx="468" cy="101" r="36" fill="#F4C400" fill-opacity="0.16"/>
</svg>
